# xmcd
#
# Track frame offsets: 
#        150
#        10807
#        23542
#        35862
#        48575
#        60440
#        82855
#        103375
#        123537
#        142807
#        161065
#        179020
#        191900
#        205572
#        219177
#        232227
#        246902
#        269697
#        294040
#
# Disc length: 4241 seconds
#
# Revision: 4
# Processed by: cddbd v1.5.2PL0 Copyright (c) Steve Scherf et al.
# Submitted via: ExactAudioCopy v0.95b4
#
DISCID=14108f13
DTITLE=Various Artist - The No.1 Blues Album [Disc I]
DYEAR=1998
DGENRE=Blues
TTITLE0=Love Struck Baby - Stevie Ray Vaughn
TTITLE1=Killing Floor - Howlin' Wolf
TTITLE2=Dust My Broom - Elmore James
TTITLE3=Come On In My Kitchen - Robert Johnson
TTITLE4=I'm Tore Down - Freddie King
TTITLE5=Living The Blues - James Cotton
TTITLE6=I'm Ready - Lucky Peterson
TTITLE7=Somebody Else Is Stepping In - Bondi Cigars
TTITLE8=I'm Leaving You (Commit A Crime) Kenny Wayne Shepherd
TTITLE9=Working Overtime - Dave Hole
TTITLE10=I'm Your Hoochie Coochie Man - Muddy Waters
TTITLE11=Sleeping In The Ground - Blind Faith
TTITLE12=Call It Stormy Monday - T-Bone Walker
TTITLE13=The Things That I Used To Do - Guitar Slim
TTITLE14=Let Me Love You Baby - Buddy Guy
TTITLE15=Hideaway - John Mayall and Eric Clapton
TTITLE16=Iceman - Albert Collins
TTITLE17=I Wonder Why - The Smokin' Joe Kubek Band
TTITLE18=Brown Sugar - ZZ Top
EXTD=YEAR: 1998
EXTT0=
EXTT1=
EXTT2=
EXTT3=
EXTT4=
EXTT5=
EXTT6=
EXTT7=
EXTT8=
EXTT9=
EXTT10=
EXTT11=
EXTT12=
EXTT13=
EXTT14=
EXTT15=
EXTT16=
EXTT17=
EXTT18=
PLAYORDER=
